<svg
   xmlns="http://www.w3.org/2000/svg"
   width="512"
   height="512"
   viewBox="0 0 512 512">
  <path
     fill="#faf18a"
     d="M 0,0 H 512 V 512 H 0 Z" />
  <path
     fill="#ffffff"
     d="m 335.26841,65.819443 c -1.2701,0.0533 -2.44392,0.781085 -3.19969,1.780557 -2.30659,2.872556 -4.48176,5.8463 -6.67582,8.804528 -2.26199,3.067478 -4.45338,6.18541 -6.66613,9.288195 -3.16538,4.381921 -6.6647,8.514993 -10.35116,12.465678 -1.41764,1.51054 -2.87133,3.004509 -4.37456,4.438049 -0.0592,0.0346 -0.19541,0.22622 -0.20537,0.16122 0.14763,-1.35787 -0.45807,-2.765572 -1.54248,-3.595262 -0.90971,-0.683139 -2.00289,-1.043741 -3.04424,-1.470996 -4.05848,-1.571052 -8.19521,-2.977482 -12.45673,-3.887249 -3.26409,-0.707049 -6.58882,-1.088396 -9.9166,-1.334978 -4.06619,-0.297779 -8.14383,-0.378154 -12.21873,-0.469728 -8.06842,-0.152491 -16.14441,-0.146119 -24.20589,0.256 -3.5074,0.183353 -7.0143,0.458089 -10.48716,0.994651 -2.39843,0.359469 -4.78956,0.766569 -7.17872,1.183317 -4.80993,0.856698 -9.58885,1.901329 -14.29521,3.216748 -6.14042,1.678299 -12.19602,3.644057 -18.26042,5.574527 -3.71263,1.193 -7.40571,2.45609 -11.01691,3.93088 -5.37666,2.16778 -10.59178,4.71377 -15.73484,7.38212 -3.14125,1.63821 -6.23492,3.36809 -9.26986,5.19557 -3.27307,1.96052 -6.50534,3.98898 -9.70026,6.07425 -4.46037,2.94069 -8.76911,6.14376 -12.63218,9.84428 -4.66188,4.42739 -8.73052,9.4327 -12.55863,14.58547 -2.78653,3.761 -5.45911,7.61371 -7.84165,11.64524 -0.94171,1.61666 -1.77176,3.29403 -2.64891,4.94561 -0.62489,1.15735 -1.31033,2.28105 -1.92941,3.44139 -0.48161,0.93012 -0.88129,1.955 -0.82658,3.02024 0.0162,0.29967 0.0686,0.59716 0.15113,0.8856 -3.67114,-2.25138 -7.319562,-4.55443 -11.166235,-6.49973 -3.061985,-1.57649 -6.231165,-2.97226 -9.542653,-3.93669 -2.6592,-0.80244 -5.351214,-1.49018 -8.047991,-2.15275 -2.513522,-0.60706 -5.037696,-1.17907 -7.586373,-1.6191 -2.357009,-0.37618 -4.749275,-0.42398 -7.130911,-0.46729 -2.289422,-0.0242 -4.580986,0.0145 -6.865496,0.17155 -1.075311,0.0816 -2.15298,0.18196 -3.211,0.39655 -1.217137,0.26356 -2.429505,0.77053 -3.298651,1.68917 -0.872351,0.91486 -1.360475,2.14886 -1.479779,3.39783 -0.130134,1.13301 -0.0937,2.2758 -0.09677,3.41389 0.03675,2.44116 0.356747,4.88711 1.067252,7.22674 0.635537,2.21573 1.577913,4.34281 2.794929,6.30057 1.899429,3.12808 4.259496,5.96271 6.886707,8.50474 3.12756,2.98836 6.744946,5.46552 10.674099,7.27736 3.472791,1.62519 7.135187,2.79031 10.796251,3.90692 1.598905,0.49651 3.185374,1.01996 4.753849,1.59091 3.012147,1.08086 6.086008,2.05603 9.266671,2.48863 1.869915,0.26064 3.765604,0.32616 5.649493,0.20434 0.129195,-0.007 0.258304,-0.0151 0.387308,-0.0253 -0.397673,0.66475 -0.625831,1.41522 -0.757387,2.17478 -0.117419,0.60891 -0.191232,1.22497 -0.277675,1.83877 -0.0182,0.11193 -0.04406,0.28106 -0.06519,0.41495 -0.474309,2.97006 -0.979502,5.93685 -1.312319,8.92706 -0.634556,5.15852 -1.068407,10.34328 -1.235214,15.5388 -0.234724,6.38315 -0.206535,12.7721 -0.180082,19.1584 0.0382,4.7688 0.224626,9.54609 0.859179,14.2767 0.590939,4.60584 1.399367,9.18334 2.035046,13.77896 0.513573,3.60642 1.001382,7.22125 1.454812,10.83117 0.3851,3.09911 0.74543,6.19651 1.06305,9.30474 0.51868,5.026 1.0436,10.05506 1.86459,15.04222 0.22727,1.38755 0.47589,2.77169 0.74736,4.15133 0.2704,1.42205 0.50196,2.89075 0.72184,4.33934 0.2758,1.8676 0.69838,3.7079 1.03286,5.56305 0.10567,0.81738 -0.0466,1.64002 0.0256,2.45905 0.11116,1.65666 0.57742,3.25837 0.94264,4.87029 0.87728,3.69189 1.9141,7.34575 3.10744,10.94809 1.06414,3.2834 2.14737,6.5608 3.28961,9.81803 1.91633,5.39796 4.0762,10.70416 6.18724,16.02785 1.74635,4.38047 3.49947,8.76228 5.17446,13.16699 1.1859,3.13273 2.33476,6.27928 3.5085,9.41653 1.09261,2.90273 2.1713,5.81038 3.24841,8.72041 1.64485,4.46527 3.47327,8.86093 5.3846,13.21799 0.98309,2.22223 1.97282,4.44283 3.05224,6.62042 0.87253,1.74208 1.84612,3.43526 2.95439,5.03876 2.05214,3.0111 4.42637,5.79823 7.02686,8.34873 2.054,1.9976 4.26605,3.84677 6.68843,5.38325 2.69865,1.67493 5.6381,2.92335 8.62954,3.97096 3.08753,1.06383 6.27364,1.84949 9.51091,2.28793 2.70427,0.37686 5.43025,0.58567 8.15813,0.68978 2.38388,0.0805 4.77551,0.0663 7.15204,-0.15303 1.57784,-0.15901 3.16224,-0.50182 4.57419,-1.24686 1.34708,-0.69274 2.55891,-1.61565 3.72495,-2.57499 1.66623,-1.4117 3.12328,-3.06171 4.37351,-4.84984 0.52569,-0.7668 0.94345,-1.61396 1.16378,-2.52018 0.31994,-1.27906 0.30009,-2.60804 0.31047,-3.91714 0.001,-1.14867 -0.001,-2.29771 0.038,-3.44584 0.26758,-0.0543 0.51848,0.093 0.70409,0.27193 1.40729,1.12799 2.68362,2.40634 4.04816,3.58377 1.84048,1.60921 3.78806,3.09433 5.81717,4.45756 1.41029,0.96469 2.8312,1.91718 4.29733,2.79571 1.1458,0.64558 2.43447,1.05982 3.75394,1.10629 1.22887,0.0802 2.4608,0.11122 3.68777,0.22159 1.57509,0.12714 3.14807,0.34443 4.73342,0.40604 2.36749,0.10325 4.73789,0.0256 7.1055,-0.0336 1.41306,-0.0393 2.84555,-0.15019 4.19087,-0.61492 2.06394,-0.68738 3.89774,-1.91391 5.58083,-3.26863 1.23593,-1.00034 2.43317,-2.05329 3.5338,-3.20211 1.52438,-1.59951 2.83416,-3.40226 3.88529,-5.3457 0.93449,-1.68957 1.69295,-3.47068 2.64208,-5.15232 0.0698,-0.11633 0.14598,-0.22897 0.22704,-0.338 0.52792,0.006 1.06142,-0.0256 1.58439,0.0583 0.47667,0.13141 0.91995,0.35726 1.36978,0.55797 0.56188,0.27591 1.06478,0.65652 1.51386,1.09021 1.3407,1.2224 2.57389,2.53896 3.88163,3.79973 2.41265,2.3354 4.986,4.51732 7.78636,6.37642 2.69587,1.80323 5.58348,3.30206 8.53898,4.63018 1.29454,0.56997 2.61948,1.08789 4.00225,1.40075 1.36488,0.31952 2.76841,0.46675 4.16984,0.44476 2.05127,0 4.12396,-0.17579 6.09459,-0.774 2.3498,-0.71527 4.52622,-1.90516 6.56353,-3.26099 1.79208,-1.20556 3.47568,-2.57721 4.99575,-4.11258 1.18272,-1.22806 2.23136,-2.64178 2.76677,-4.27748 0.49271,-1.54214 0.50423,-3.17775 0.54969,-4.78026 0.0415,-1.74859 0.003,-3.49957 0.10126,-5.24646 0.29474,-0.0614 0.59571,-0.0936 0.89685,-0.0922 0.61836,0.82662 1.0413,1.77451 1.55594,2.66465 1.31331,2.39664 3.13794,4.47653 5.16022,6.29962 1.69065,1.51918 3.5109,2.88807 5.37478,4.18628 1.9613,1.35418 4.00816,2.59646 6.17386,3.59703 1.78489,0.78856 3.67881,1.27982 5.53965,1.85028 2.18166,0.64205 4.36903,1.2703 6.58295,1.79277 1.64853,0.36303 3.36794,0.45118 5.03407,0.15246 1.68969,-0.28877 3.31745,-0.85348 4.90897,-1.47772 2.32317,-0.92746 4.55959,-2.05667 6.76318,-3.23649 1.2191,-0.64714 2.37494,-1.41338 3.43643,-2.29607 1.35242,-1.12606 2.57146,-2.41843 3.58633,-3.85741 0.84759,-1.20308 1.53759,-2.53676 1.87301,-3.97696 0.29105,-1.15259 0.33909,-2.34547 0.40804,-3.52671 0.0788,-1.74703 0.10154,-3.49602 0.1408,-5.2443 0.029,-1.45434 0.0475,-2.91382 0.11292,-4.35905 0.0228,-0.16783 -0.009,-0.34671 0.0381,-0.50799 0.23552,-0.28664 0.53615,-0.51391 0.85797,-0.69547 0.68175,0.19968 1.29931,0.56809 1.9,0.93915 1.07995,0.69851 2.09425,1.4918 3.13296,2.24868 1.75863,1.29703 3.5801,2.56318 5.63649,3.34247 0.9528,0.36862 1.96949,0.54312 2.98698,0.59481 2.06461,0.11861 4.13477,0.0919 6.1995,-0.0114 1.63066,-0.0805 3.27219,-0.16214 4.86903,-0.52785 0.81744,-0.18545 1.61394,-0.45007 2.41701,-0.68798 1.56854,-0.49189 3.12767,-1.01789 4.65721,-1.62105 0.90394,-0.35644 1.78989,-0.77414 2.5852,-1.33746 1.32984,-0.91921 2.48687,-2.06373 3.56278,-3.26411 1.11795,-1.27104 2.13931,-2.63273 2.99224,-4.09626 0.72289,-1.35009 0.98139,-2.8963 1.01391,-4.41324 0.0668,-1.93829 -0.003,-3.87774 -0.0199,-5.81635 -0.035,-2.27058 -0.0651,-4.55899 -10e-4,-6.8189 0.0199,-0.5512 0.0381,-1.09369 0.0862,-1.63609 0.31255,-0.0879 0.67655,-0.10667 0.95257,0.0916 0.51388,0.31024 0.97758,0.69512 1.4565,1.05526 1.36363,1.07511 2.68826,2.24839 4.28723,2.96724 1.32591,0.59557 2.7396,0.98176 4.17024,1.22504 2.65174,0.41831 5.43002,0.0691 7.87112,-1.05907 2.34092,-1.03953 4.38301,-2.65165 6.16869,-4.46996 2.01836,-2.02334 3.68925,-4.36557 5.14867,-6.81549 1.41037,-2.34766 2.68357,-4.77448 3.9275,-7.21345 1.25528,-2.49998 2.41638,-5.08979 2.93939,-7.85408 0.29941,-1.55856 0.3685,-3.14801 0.44385,-4.72963 0.093,-2.32209 0.0839,-4.64728 0.0427,-6.97051 -0.0973,-4.40627 -0.38526,-8.81735 -1.09247,-13.17106 -0.32668,-1.96511 -0.81897,-3.89811 -1.37725,-5.80904 -0.75497,-2.57806 -1.58723,-5.13246 -2.41326,-7.68839 -1.41767,-4.35911 -2.88441,-8.70266 -4.24172,-13.08123 -0.74132,-2.41362 -1.39864,-4.85185 -2.03659,-7.29446 -1.2389,-4.72357 -2.59578,-9.42313 -4.30444,-14.00093 -1.60407,-4.38732 -3.30121,-8.73984 -5.01319,-13.08595 -1.15445,-2.8748 -2.42267,-5.70355 -3.78804,-8.48432 -1.19102,-2.50371 -2.40298,-4.99829 -3.70955,-7.44415 -1.0244,-1.95627 -2.05739,-3.90868 -3.07641,-5.86737 -0.0728,-0.23239 -0.35695,-0.38724 -0.57935,-0.2606 -0.18319,0.0967 -0.24434,0.31281 -0.37584,0.46186 -1.26737,1.78852 -2.46335,3.62599 -3.66527,5.45856 -0.64381,0.87658 -1.42333,1.64069 -2.18538,2.41262 -0.87581,0.85764 -1.75943,1.71481 -2.74449,2.44805 -0.13654,0.10041 -0.32404,0.23669 -0.46703,0.33673 -1.50804,1.02687 -3.04848,2.0066 -4.61608,2.94005 -0.76356,0.44384 -1.52104,0.9014 -2.31302,1.29344 -0.27648,0.13297 -0.56217,0.25133 -0.86187,0.32007 -0.33154,-0.3387 -0.61735,-0.72455 -0.8316,-1.14792 0.5545,-0.65387 1.26515,-1.14947 1.96873,-1.62881 1.5366,-1.00637 3.16063,-1.87228 4.68434,-2.89908 1.74453,-1.15126 3.3961,-2.4543 4.85032,-3.95925 2.98806,-2.98745 5.71654,-6.25899 7.90289,-9.88257 1.85759,-3.06039 3.38546,-6.3045 4.86227,-9.56126 2.0385,-4.54496 3.7859,-9.25056 4.76746,-14.14533 0.46424,-2.28251 0.78657,-4.59948 0.83919,-6.93058 0.0481,-1.68304 0.0438,-3.36734 0.0285,-5.05088 -0.0378,-2.99251 -0.12943,-5.98494 -0.31372,-8.97216 -0.12743,-2.02119 -0.32736,-4.04029 -0.69026,-6.0339 -0.41045,-2.30032 -0.97155,-4.58277 -1.8199,-6.76344 -0.78666,-1.99576 -1.86718,-3.90677 -3.38296,-5.44152 -1.09095,-1.12048 -2.32089,-2.09931 -3.6121,-2.97843 -0.94694,-0.6249 -1.94173,-1.19421 -3.01295,-1.57709 -1.2183,-0.40523 -2.58221,-0.43014 -3.78428,0.0472 -1.35273,0.5056 -2.47114,1.45351 -3.54403,2.39225 -1.80056,1.59589 -3.50865,3.29145 -5.23318,4.9681 -2.52521,2.47887 -5.02921,4.98267 -7.40722,7.6042 -1.54109,1.71938 -2.9692,3.53478 -4.44769,5.30732 -3.40815,4.12516 -6.81551,8.26195 -9.86348,12.66476 -0.9183,1.29569 -1.79948,2.61959 -2.78246,3.86799 -0.1317,0.16358 -0.26681,0.32464 -0.40423,0.48357 -0.0862,-0.11406 -0.20679,-0.23563 -0.21305,-0.38441 0.0489,-0.30016 0.17721,-0.58236 0.29802,-0.85964 0.41443,-0.87921 0.98659,-1.67018 1.51794,-2.48031 1.46389,-2.16452 2.97662,-4.29416 4.49846,-6.42184 1.18417,-1.64835 2.37676,-3.2916 3.62325,-4.8935 0.72454,-0.90195 1.55838,-1.72712 2.14352,-2.7329 0.53316,-0.93779 0.77505,-2.05885 0.56786,-3.12626 -0.12999,-0.74678 -0.47167,-1.43681 -0.87979,-2.06859 -1.30452,-2.26579 -2.55072,-4.56467 -3.8198,-6.85459 -1.50611,-2.71052 -2.94648,-5.47153 -4.35024,-8.24204 -3.71749,-7.27184 -7.33895,-14.59321 -11.1856,-21.79789 -1.77807,-3.32795 -3.64047,-6.6119 -5.63986,-9.81214 -1.39403,-2.2266 -2.82114,-4.43216 -4.19837,-6.66954 -2.14792,-3.46734 -4.34415,-6.90832 -6.71934,-10.22543 -1.52627,-2.06811 -3.0891,-4.10902 -4.62413,-6.17063 -2.64906,-3.53164 -5.32082,-7.05 -8.14515,-10.44424 -0.92325,-1.11991 -1.85831,-2.23517 -2.76403,-3.36293 -0.8898,-1.10751 -1.75742,-2.28133 -2.67327,-3.38935 -0.64893,-0.79017 -1.53498,-1.42896 -2.55571,-1.61517 -1.12699,-0.23222 -2.31768,0.004 -3.32518,0.54063 -0.0828,0.0397 -0.21931,0.10488 -0.32304,0.15702 -1.4988,0.74346 -2.89223,1.6946 -4.44422,2.33055 -0.0828,0.0119 -0.18233,0.10835 -0.25657,0.057 -0.31021,-0.24192 -0.62982,-0.50551 -0.79505,-0.87236 0,-0.27492 0.22357,-0.4836 0.40636,-0.66332 0.21845,-0.20011 0.49684,-0.37954 0.72872,-0.52314 1.23141,-0.75555 2.56833,-1.36312 3.84987,-2.04476 2.92918,-1.54881 5.7561,-3.33919 8.20818,-5.58093 2.35634,-2.09834 4.50159,-4.4778 6.07397,-7.22648 1.13098,-1.95909 2.06626,-4.03465 2.7493,-6.19195 0.60342,-1.947827 0.90564,-3.978456 1.00477,-6.012098 0.12146,-2.232118 0.0708,-4.472633 -0.11719,-6.699486 -0.23637,-2.368426 -0.93167,-4.668387 -1.82534,-6.866412 -1.11374,-2.693472 -2.67662,-5.212464 -4.67928,-7.336018 -1.23782,-1.341611 -2.57635,-2.613649 -4.12217,-3.596339 -0.85805,-0.514347 -1.85213,-0.84583 -2.86128,-0.798999 z" />
  <path
     fill="#0b0000"
     d="m 177.67899,457.59087 c -11.70778,-0.88124 -23.90925,-6.17614 -30.75967,-13.34832 -1.77354,-1.85686 -7.2832,-8.84719 -9.22896,-11.70922 -2.61686,-3.84913 -6.34587,-12.61974 -10.99777,-25.86666 -2.75382,-7.84191 -3.23884,-9.16423 -4.84415,-13.20687 -0.84299,-2.1229 -1.9528,-5.09981 -2.46624,-6.61536 -0.51344,-1.51557 -1.61933,-4.55557 -2.45753,-6.75555 -3.99207,-10.47788 -7.32615,-19.59393 -8.77774,-24 -1.22685,-3.72395 -2.78076,-9.92011 -4.05715,-16.17778 -1.09484,-5.36752 -1.19155,-5.7538 -2.31464,-9.24444 -1.1885,-3.69397 -2.877231,-10.16283 -3.271904,-12.53334 -0.46904,-2.81719 -0.851419,-6.53875 -1.086842,-10.57777 -0.105415,-1.8089 -0.347841,-4.48888 -0.538684,-5.95556 -0.190834,-1.46665 -0.783411,-6.18667 -1.316821,-10.48889 -0.963061,-7.76759 -1.444469,-11.25185 -2.30891,-16.71111 -1.467818,-9.26977 -1.728859,-16.07973 -1.342475,-35.02222 0.11776,-5.77273 0.244452,-8.38443 0.517476,-10.66667 0.198855,-1.66222 0.488066,-4.18223 0.642702,-5.6 0.395508,-3.62628 1.467483,-10.98667 1.875934,-12.88057 0.188814,-0.8754 0.343273,-1.64594 0.343273,-1.71225 0,-0.0663 -2.579999,-0.16265 -5.733333,-0.21405 -9.235041,-0.15058 -12.389897,-0.73042 -18.355556,-3.37368 -1.988011,-0.88084 -5.927808,-3.10248 -7.822222,-4.41094 -2.042883,-1.41101 -5.866473,-4.54104 -8.315591,-6.80725 -6.190646,-5.72828 -8.513172,-9.33002 -10.358841,-16.06434 -0.991915,-3.6192 -1.229221,-5.61631 -1.220352,-10.27025 0.0094,-4.8841 0.287155,-6.8551 1.201177,-8.52079 1.05331,-1.91952 2.584764,-2.57218 7.658511,-3.2638 2.826444,-0.38528 14.628952,-0.43095 17.07954,-0.0661 5.358336,0.79781 12.476661,2.49558 17.422222,4.15533 7.068325,2.37216 11.373125,4.49073 15.111116,7.43682 l 1.06666,0.84071 v -1.71333 c 0,-2.33831 0.54047,-3.92283 2.97517,-8.7225 3.03628,-5.98558 2.856,-5.74652 10.82426,-14.35338 10.78571,-11.65005 17.71676,-17.71485 26.82279,-23.47041 0.9289,-0.58711 3.04889,-1.92939 4.71112,-2.98284 9.18912,-5.82369 20.42766,-11.59597 29.73735,-15.27354 4.08047,-1.611897 5.06791,-1.943631 12.51985,-4.206124 3.25632,-0.98865 7.16058,-2.186812 8.67613,-2.662577 6.38824,-2.00541 12.80909,-3.663735 17.51111,-4.522629 1.46667,-0.267919 5.26667,-1.006641 8.44444,-1.641632 6.99468,-1.397686 6.9037,-1.390617 21.51112,-1.671887 11.36574,-0.218852 25.63447,-0.128029 31.46666,0.200305 8.01292,0.451084 13.19953,1.532658 21.19089,4.418981 3.4422,1.243256 5.8767,1.974998 6.57078,1.974998 0.51751,0 0.24945,0.322341 6.2561,-7.524591 1.06089,-1.385919 3.59418,-4.999854 5.62958,-8.030965 5.96423,-8.881999 11.36791,-15.274063 14.0255,-16.590922 1.04963,-0.520098 1.27897,-0.564633 2.90767,-0.564633 2.84616,0 4.65889,0.612605 7.59109,2.565378 1.96642,1.309597 4.48142,3.818181 5.75263,5.737962 1.62142,2.44868 3.59879,7.102481 4.2145,9.918882 0.98859,4.522078 1.52095,12.420215 1.07568,15.957925 -0.5403,4.292323 -2.08082,8.420399 -4.88883,13.100409 -2.34334,3.90556 -3.63275,5.33273 -7.75427,8.58279 -0.57938,0.45688 -0.59676,0.50051 -0.29414,0.73839 2.27797,1.79072 3.88545,3.28917 5.30896,4.94897 3.17013,3.69621 6.39277,7.67855 7.66469,9.47152 0.69362,0.97777 2.51426,3.41778 4.04591,5.42222 1.53162,2.00444 3.49124,4.68444 4.3547,5.95555 0.86346,1.27111 2.3372,3.43111 3.27498,4.8 1.94119,2.83354 6.43516,9.80495 8.36588,12.97778 0.71396,1.17333 2.69426,4.89334 4.40064,8.26667 1.70639,3.37334 4.20224,8.25334 5.54639,10.84444 1.34411,2.59111 3.30604,6.39111 4.35982,8.44445 1.05381,2.05333 2.25374,4.33332 2.66649,5.06666 0.41276,0.73333 1.31821,2.45524 2.01214,3.82648 1.32212,2.61263 2.56631,4.52908 2.94038,4.52908 0.12146,0 0.85706,-0.81253 1.63468,-1.80563 2.93325,-3.74603 3.47232,-4.37404 5.2639,-6.13221 6.79299,-6.66624 9.43434,-8.04721 14.99437,-7.8395 3.39419,0.12686 4.92138,0.75479 7.88753,3.24345 2.93578,2.46316 4.62351,4.54346 5.90538,7.27886 1.19345,2.54673 3.2838,11.06738 3.88423,15.83281 0.63213,5.01669 0.69263,14.95792 0.11577,19.02222 -0.46703,3.29059 -1.63092,8.96549 -2.3069,11.24777 -1.3316,4.49582 -5.56302,14.19139 -8.48219,19.43548 -0.57657,1.03579 -1.04823,2.07579 -1.04809,2.31111 1.1e-4,0.23532 0.46902,1.15142 1.04203,2.03575 4.09384,6.3181 7.55806,13.12652 11.07684,21.76988 3.92121,9.6318 5.81461,15.06927 7.52151,21.6 1.69856,6.49879 2.83989,10.2301 4.62225,15.11111 1.67976,4.60001 4.69014,14.12085 5.59309,17.68889 0.92032,3.63682 1.14835,5.79882 1.61254,15.28889 0.56698,11.59074 -0.0285,14.98362 -4.25907,24.27187 -2.61544,5.74214 -5.90993,11.08542 -8.52398,13.82505 -3.04947,3.19596 -8.09076,6.41368 -11.35749,7.24915 -2.56148,0.65514 -6.77206,0.40724 -10.91323,-0.6425 -0.94797,-0.24036 -1.85836,-0.43691 -2.02311,-0.43691 -0.27506,0 -0.28919,0.28749 -0.17323,3.51113 0.2213,6.15245 -0.32719,8.10908 -3.45062,12.30893 -1.58066,2.12537 -4.525,5.06425 -5.98593,5.97482 -2.86004,1.78258 -7.76337,3.37931 -13.13741,4.27807 -1.67066,0.27932 -2.84399,0.32185 -8.05427,0.29116 l -6.09875,-0.0361 -0.98412,-0.45056 c -0.54127,-0.24775 -1.47684,-0.83826 -2.07906,-1.31208 -1.55372,-1.2226 -1.45954,-1.21049 -2.01156,-0.25856 -0.27079,0.4668 -0.83732,1.38598 -1.2591,2.04262 -1.19873,1.86621 -1.77317,3.23641 -2.28915,5.46048 -0.5814,2.5059 -0.85646,3.16959 -2.04814,4.94197 -1.99692,2.97005 -5.36036,5.6343 -10.46471,8.28945 -2.8065,1.45982 -5.27557,2.36069 -8.17778,2.98371 -1.60026,0.34349 -2.4122,0.40177 -5.68889,0.40809 -3.60183,0.006 -3.935,-0.0199 -5.77778,-0.48561 -5.07511,-1.27928 -9.94469,-2.9909 -13.11966,-4.61135 -2.16078,-1.10285 -6.65122,-4.08522 -9.02092,-5.99134 -0.98034,-0.78857 -1.81959,-1.43374 -1.86505,-1.43374 -0.0452,0 -0.44231,0.75449 -0.88195,1.67663 -0.43963,0.92214 -1.28079,2.3156 -1.86928,3.09657 -1.28191,1.70121 -3.77381,4.08704 -5.55455,5.31803 -4.36252,3.01583 -13.1601,5.35894 -18.11373,4.82438 -3.5074,-0.37851 -7.0953,-1.408 -11.11886,-3.19044 -2.87493,-1.27355 -4.8066,-2.43579 -8.50046,-5.1144 -4.6168,-3.34788 -5.87854,-4.461 -8.26666,-7.29278 l -0.8,-0.94866 -0.65449,1.14185 c -3.20016,5.58308 -9.05746,10.90472 -14.45662,13.13451 -2.82383,1.16622 -4.00295,1.3112 -10.57778,1.30039 -6.54423,-0.009 -13.26022,-0.33172 -14.84445,-0.70955 -2.33918,-0.55779 -8.55054,-4.0271 -11.25708,-6.28755 -0.61806,-0.51619 -1.14819,-0.91088 -1.17806,-0.87709 -0.0299,0.0338 -0.47124,0.90143 -0.98078,1.92811 -1.78907,3.60471 -3.47747,5.69409 -6.2515,7.73623 -1.45371,1.07017 -4.24308,2.46195 -6.49431,3.24042 l -1.92715,0.66643 -6.31112,0.0256 c -3.4711,0.0142 -7.19557,-0.041 -8.27656,-0.12231 z m 11.74323,-9.24305 c 2.2053,-0.20878 3.182,-0.57082 4.95589,-1.83672 1.62202,-1.15749 2.89757,-2.35736 4.0607,-3.81983 1.84477,-2.3195 1.82033,-2.23346 1.82436,-6.4246 0.003,-3.43316 0.027,-3.69223 0.40975,-4.46905 0.70295,-1.42683 2.52205,-2.27869 4.30251,-2.01478 1.3896,0.20594 2.01983,0.63545 5.08551,3.46553 2.55316,2.35696 4.60836,3.96763 7.62795,5.97808 4.31259,2.87133 3.88235,2.6919 6.75555,2.81745 1.36889,0.06 3.52198,0.2324 4.78463,0.38361 1.7015,0.20366 3.4041,0.25457 6.57778,0.19683 3.75431,-0.0683 4.4248,-0.12459 5.44031,-0.45653 1.56241,-0.51064 3.02834,-1.42786 5.16952,-3.23451 3.29825,-2.78291 4.88445,-4.8826 6.91684,-9.15589 1.45537,-3.06014 2.08896,-4.02555 3.06618,-4.67206 0.67692,-0.44786 0.86109,-0.48236 2.52083,-0.4724 1.53023,0.0114 1.96479,0.0819 2.9886,0.50028 2.31204,0.94481 2.8194,1.33632 6.35754,4.90621 4.6652,4.70707 8.48,7.54304 13.60775,10.11621 4.97495,2.49651 6.71293,2.96542 10.46043,2.8222 2.6327,-0.10041 4.29884,-0.53314 6.68737,-1.73602 3.22569,-1.62449 7.05602,-4.71652 8.33459,-6.72814 0.86068,-1.35407 0.95972,-2.04032 0.99138,-6.86927 0.0313,-4.79323 0.10809,-5.25082 1.0213,-6.09187 1.00474,-0.92538 3.66566,-1.38646 5.33137,-0.92381 0.9295,0.25827 1.93729,1.48343 3.11694,3.78959 1.51708,2.96585 3.61227,5.29152 7.33776,8.14484 3.20531,2.45493 6.39712,4.40076 8.69108,5.29835 1.27443,0.49866 7.66942,2.37329 10.09044,2.95794 2.68385,0.6481 4.2267,0.4685 7.96072,-0.92655 1.9493,-0.72827 6.44503,-2.9578 7.92442,-3.92986 2.10358,-1.38223 4.09828,-3.49175 5.04158,-5.33188 0.77238,-1.50665 0.87185,-2.40177 0.98398,-8.85342 0.10496,-6.04089 0.12004,-6.24666 0.52113,-7.06116 0.47679,-0.96845 1.7608,-2.11362 2.96926,-2.64818 1.06442,-0.47084 2.2483,-0.35226 3.79745,0.38036 1.28241,0.60649 2.0439,1.1107 4.84155,3.2056 2.47965,1.8568 4.08272,2.77939 5.45033,3.13671 1.59781,0.41742 9.20607,0.23495 11.16123,-0.26794 2.29475,-0.59006 6.21394,-1.92549 7.50768,-2.55821 1.46765,-0.7178 3.57436,-2.75078 5.18116,-4.9998 1.68254,-2.35503 1.65134,-2.15597 1.52328,-9.72077 -0.12572,-7.4215 0.0199,-10.24731 0.56167,-10.98525 0.61827,-0.84047 2.09149,-1.50607 3.53928,-1.599 1.70414,-0.10951 2.56822,0.29369 5.22693,2.43789 2.34339,1.8899 2.56204,2.01751 4.51558,2.63489 1.98366,0.62689 4.29997,0.65385 6.0668,0.0705 2.4066,-0.79448 4.30831,-2.10676 6.70936,-4.62987 1.88766,-1.9836 3.65423,-4.61045 5.93027,-8.81815 3.0693,-5.67415 4.16643,-8.27875 4.59631,-10.91174 0.57845,-3.54301 0.4862,-13.57574 -0.17749,-19.31048 -0.7263,-6.27453 -0.89347,-6.88 -7.01938,-25.42222 -0.9691,-2.93333 -2.16949,-6.89331 -2.66755,-8.8 -2.9118,-11.14692 -3.59233,-13.24234 -8.07555,-24.86463 -2.35315,-6.10036 -3.27134,-8.28254 -4.98449,-11.84648 -0.65803,-1.36889 -1.49939,-3.12889 -1.86971,-3.91111 -0.37029,-0.78223 -1.14702,-2.32326 -1.72606,-3.4245 l -1.05276,-2.00228 -0.588,0.90745 c -0.80896,1.24843 -4.06904,4.50721 -5.75787,5.75559 -1.88143,1.39074 -6.48073,4.23645 -8.08932,5.00503 -1.3878,0.66314 -2.61709,0.90169 -3.64891,0.70813 -1.50309,-0.282 -3.84765,-3.42055 -3.84372,-5.14546 0.006,-1.7219 1.72674,-3.58952 5.19048,-5.62668 4.16361,-2.44877 5.64096,-3.52771 7.74724,-5.65797 4.28269,-4.33145 6.91986,-8.01327 9.56823,-13.35838 4.49112,-9.06422 6.60247,-15.34615 7.38097,-21.96093 0.40342,-3.42764 0.11889,-15.59439 -0.46134,-19.72524 -0.76863,-5.4725 -2.04544,-9.24527 -3.88478,-11.47892 -1.3911,-1.68934 -4.34406,-3.85985 -5.79712,-4.26103 -1.21358,-0.33509 -2.14786,0.38943 -8.45926,6.56003 -3.92255,3.83505 -7.15975,7.22473 -8.58945,8.99405 -0.55308,0.68444 -2.56367,3.12445 -4.46797,5.42222 -3.70882,4.47506 -6.30983,7.86999 -8.69527,11.34923 -3.03664,4.42909 -4.29966,5.71743 -5.60498,5.71743 -1.32636,0 -3.16365,-1.33521 -3.93685,-2.86104 -0.8012,-1.58108 -0.55728,-3.19936 0.84158,-5.5834 1.19478,-2.03625 8.39026,-12.14747 9.78597,-13.75142 1.89529,-2.17812 1.87256,-2.12799 1.34568,-2.96795 -0.24234,-0.38656 -1.1875,-2.06285 -2.10002,-3.72507 -0.91256,-1.66223 -2.2588,-4.10222 -2.99165,-5.42223 -0.73287,-1.31999 -3.14681,-6 -5.36433,-10.4 -8.93037,-17.71938 -11.52043,-22.49651 -15.90392,-29.33333 -1.19111,-1.85778 -2.62172,-4.13777 -3.17912,-5.06667 -1.53131,-2.55195 -5.15729,-8.06341 -6.30611,-9.58522 -0.55973,-0.74146 -2.24824,-2.98811 -3.75227,-4.99255 -1.50403,-2.00445 -3.09772,-4.12445 -3.54154,-4.71112 -1.67281,-2.21116 -4.62099,-5.89691 -6.31094,-7.88979 -0.96347,-1.13617 -2.35449,-2.86576 -3.09114,-3.84354 -0.73668,-0.97778 -1.42839,-1.83595 -1.53717,-1.90705 -0.29986,-0.19604 -0.72226,-0.0148 -3.04216,1.30546 -4.24422,2.41536 -5.4454,2.49158 -7.64111,0.48481 -1.73099,-1.58202 -2.17726,-3.55119 -1.23384,-5.44437 0.70417,-1.41311 1.87657,-2.32916 4.92083,-3.84491 4.66526,-2.32286 7.26255,-4.07812 10.15168,-6.86061 2.23778,-2.15517 3.7258,-4.14116 4.97406,-6.6386 1.53338,-3.067985 2.19175,-5.255076 2.44343,-8.116951 0.24718,-2.811497 0.12715,-6.847414 -0.25685,-8.622222 -0.75458,-3.48866 -2.26176,-6.783761 -4.20813,-9.200043 -1.88593,-2.341228 -4.46072,-4.566093 -5.03097,-4.347255 -0.33508,0.128568 -7.96154,10.34013 -11.31273,15.147298 -2.93196,4.205832 -4.74117,6.590515 -7.55308,9.955555 -4.55776,5.454358 -10.49907,11.554428 -12.53583,12.870858 -1.51626,0.98 -3.22094,1.48692 -5.05401,1.5029 -1.55867,0.0137 -2.33944,-0.25739 -2.85267,-0.99007 -0.36158,-0.51626 -0.35459,-1.78399 0.0142,-2.50363 0.69706,-1.36227 2.77367,-3.32436 3.51812,-3.32436 0.70326,0 0.0814,-0.33894 -2.25832,-1.23077 -10.07405,-3.839967 -15.55824,-4.820837 -28.92928,-5.174114 -16.78505,-0.443477 -30.39179,-0.05854 -37.6,1.063737 -14.72284,2.292247 -19.91455,3.598497 -40.07222,10.082307 -8.29584,2.6684 -14.29096,5.16171 -23.03889,9.58167 -6.17985,3.12241 -10.61869,5.67477 -18.22222,10.4779 -8.77744,5.54469 -13.87929,9.71259 -19.45403,15.89277 -5.753,6.37782 -13.62785,17.36444 -16.45046,22.95094 -0.81515,1.61334 -1.81976,3.49334 -2.23247,4.17778 -1.05455,1.74888 -1.53719,2.74146 -1.42292,2.92635 0.0539,0.0872 0.79693,0.53767 1.65116,1.00099 2.25227,1.22158 3.92588,2.39044 4.86826,3.39999 0.66005,0.70713 0.8685,1.08883 1.03649,1.89804 0.32875,1.58358 -0.0535,3.13225 -0.92347,3.74162 -0.74174,0.51953 -1.41802,0.33227 -4.70034,-1.30159 -2.93826,-1.46259 -5.14721,-2.74316 -10.90556,-6.32218 -5.383761,-3.3462 -10.419872,-5.9323 -14.222223,-7.30328 -3.715903,-1.33982 -12.833815,-3.64631 -17.6,-4.45215 -3.641566,-0.61571 -13.669499,-0.52296 -15.986421,0.14785 -1.396412,0.40429 -1.527102,0.7592 -1.50978,4.09992 0.01593,3.09468 0.379808,5.21339 1.392945,8.1132 1.469397,4.20575 5.694412,9.75634 10.236589,13.44828 4.344653,3.53139 8.848632,5.71168 16.649885,8.05996 1.940343,0.58406 4.396507,1.38418 5.458147,1.77802 7.708243,2.85966 11.726652,3.33472 18.414118,2.17689 3.4301,-0.59385 5.47842,-0.71801 5.84229,-0.35413 0.54893,0.54892 -0.003,2.92095 -0.97683,4.2018 -0.66233,0.87071 -1.32115,1.19973 -3.30141,1.64872 -2.07808,0.47117 -2.10002,0.49821 -2.44076,3.00859 -0.11236,0.82793 -0.43671,2.86533 -0.72074,4.52756 -0.45604,2.6689 -1.18377,8.87274 -1.49105,12.71111 -0.45188,5.64454 -0.63149,11.6855 -0.63167,21.24444 -1.8e-4,12.87657 0.21413,15.81705 1.95059,26.75556 1.25957,7.93446 2.83763,19.99439 3.4661,26.48889 0.74601,7.70898 1.57845,13.95834 2.40359,18.04444 0.27643,1.36889 0.63445,3.44889 0.79559,4.62222 0.16114,1.17334 0.52045,3.17332 0.79846,4.44445 0.40008,1.8292 0.48622,2.58912 0.4131,3.64444 -0.0808,1.16679 0.0119,1.76632 0.74257,4.8 1.24395,5.16475 1.86034,7.27046 4.21528,14.4 2.53726,7.68151 3.38112,9.94404 8.32855,22.33011 4.02297,10.0717 4.98608,12.55678 7.02029,18.11434 0.71579,1.95555 1.83472,4.95553 2.4865,6.66666 0.65179,1.71111 1.70541,4.55111 2.34139,6.31111 2.1061,5.82844 6.34357,15.7553 8.65121,20.26667 3.03317,5.92976 8.89735,12.55865 14.34306,16.21339 3.59424,2.4122 9.65305,4.7325 14.93063,5.7179 4.92269,0.91913 12.11724,1.31525 16.44445,0.90542 z m -11.37778,-77.30264 c -0.84571,-0.38631 -2.04246,-1.64062 -2.59178,-2.71639 -0.57947,-1.13485 -0.67003,-2.892 -0.19684,-3.81955 0.72474,-1.42057 2.19106,-2.51415 5.9081,-4.40627 3.8169,-1.94296 4.82378,-2.56711 7.20545,-4.46672 3.38965,-2.70359 4.66065,-4.09711 7.28903,-7.99181 1.89629,-2.80982 3.32572,-5.75488 4.40071,-9.06666 2.04466,-6.29902 2.60828,-9.9464 2.60693,-16.87026 -0.001,-9.86092 -1.33995,-17.10143 -4.19456,-22.69844 -1.49628,-2.9337 -2.98632,-5.04593 -4.9545,-7.02325 -2.07369,-2.08335 -3.53641,-2.93953 -5.22658,-3.05934 -0.92446,-0.0654 -1.06452,-0.0227 -1.82044,0.5566 -1.31321,1.00637 -11.35549,12.3592 -16.0476,18.14187 -6.70086,8.25833 -8.32206,10.1547 -13.00014,15.20677 -1.76,1.90071 -3.6323,3.94112 -4.16065,4.53427 -2.11561,2.37503 -8.56575,8.96154 -10.20521,10.42102 -0.95901,0.85371 -2.23901,1.82073 -2.84445,2.14892 -1.00727,0.54599 -1.23134,0.59674 -2.63721,0.59705 -1.28512,0 -1.6017,-0.0577 -1.93565,-0.35521 -0.62168,-0.55367 -0.88349,-1.38547 -0.88349,-2.80704 0,-2.22939 0.25398,-2.68917 3.00449,-5.43875 2.53619,-2.53537 5.1951,-5.47146 8.46941,-9.35233 1.07157,-1.27011 2.94852,-3.3901 4.17098,-4.71112 5.04046,-5.44682 6.10271,-6.65403 8.45976,-9.61396 2.54352,-3.19411 5.02484,-6.23881 8.61063,-10.56569 1.13444,-1.36889 3.1298,-3.84888 4.43417,-5.51111 4.42605,-5.64042 7.05701,-8.33835 9.94885,-10.2021 3.46343,-2.23214 9.39341,-2.35157 13.35656,-0.26897 1.36415,0.71681 3.87832,2.85493 5.42922,4.61712 4.08705,4.64384 6.68627,9.65691 8.26554,15.94163 1.40625,5.59624 1.71394,7.86307 1.96224,14.45652 0.40056,10.63648 -0.28778,19.00632 -2.00874,24.42547 -1.26032,3.9686 -3.75525,9.36715 -5.59531,12.10712 -2.49577,3.71644 -6.13604,7.72767 -9.39669,10.35426 -4.47181,3.60226 -10.56845,7.04996 -13.4243,7.59157 -1.27184,0.24121 -1.57264,0.22186 -2.39793,-0.15531 z m 65.54541,-116.64511 c -4.4817,-0.63361 -8.53398,-3.21872 -11.88601,-7.58249 -1.52124,-1.98039 -2.58155,-4.00491 -3.75686,-7.17315 -1.3798,-3.71954 -1.65902,-6.00713 -1.28495,-10.52759 0.12373,-1.49426 0.23529,-3.35684 0.24806,-4.13906 l 0.0233,-1.42222 -2.00696,-0.12544 c -3.36489,-0.21032 -6.69738,-1.57277 -8.95153,-3.65972 -2.77595,-2.57003 -3.81988,-5.04285 -4.01994,-9.52224 -0.11791,-2.63826 0.14009,-4.20071 0.90325,-5.4708 0.73068,-1.21613 1.49584,-1.66584 2.8041,-1.64806 1.38847,0.0191 2.5454,0.60632 3.18725,1.61843 0.58859,0.92809 0.82124,1.85194 1.04396,4.14547 0.294,3.02777 1.35058,4.71196 3.34193,5.32703 1.3965,0.43133 3.56604,0.48085 4.30587,0.0983 0.79903,-0.41322 2.02605,-1.90615 2.73082,-3.32267 0.80836,-1.62473 1.14315,-3.27555 1.39177,-6.86259 0.13739,-1.98275 0.27964,-2.95052 0.48733,-3.31591 0.47146,-0.82956 1.47025,-1.2337 3.2604,-1.31928 1.40763,-0.0673 1.65677,-0.0289 2.5077,0.38752 1.15896,0.56703 1.48348,0.90518 3.05849,3.18692 1.77731,2.57483 2.3846,2.91479 5.52875,3.09509 2.49432,0.14305 3.44919,-0.10638 4.52469,-1.18188 1.08333,-1.08333 1.66462,-2.55341 1.5323,-3.87514 -0.0986,-0.98479 -0.48619,-1.89356 -1.80055,-4.22168 -0.49431,-0.87559 -0.80378,-1.64581 -0.80518,-2.00395 -0.003,-0.6575 1.14452,-3.06363 1.8735,-3.92996 1.07915,-1.2825 1.85499,-1.27334 4.49591,0.053 3.01605,1.51475 3.63898,2.7509 4.12814,8.19201 0.36795,4.0928 -0.15772,7.16913 -1.77122,10.36543 l -0.56505,1.11936 0.68927,0.78305 c 0.95152,1.08098 1.60336,2.36669 3.06111,6.03776 1.69801,4.27615 2.96763,8.09618 3.20354,9.63881 0.12103,0.79109 0.17206,3.29634 0.13411,6.57778 -0.0675,5.84644 -0.031,5.62066 -1.37691,8.51483 -1.55878,3.35202 -4.55974,6.98845 -7.80591,9.45893 -1.26974,0.96631 -3.50853,2.05128 -5.00208,2.42412 -1.37421,0.34307 -5.80563,0.50999 -7.43238,0.28 z m 4.14812,-8.7271 c 0.57626,-0.10652 1.42116,-0.3829 1.87759,-0.61418 1.71645,-0.86979 5.02593,-3.83256 6.62765,-5.93333 l 0.73457,-0.96341 0.0577,-4.10326 c 0.0364,-2.58848 -0.0202,-4.59545 -0.15326,-5.43657 -0.23179,-1.46437 -1.77358,-5.89155 -3.30685,-9.49546 -1.26746,-2.97916 -1.59566,-3.6108 -1.98419,-3.81874 -0.17527,-0.0939 -1.59499,-0.22164 -3.15497,-0.28411 -3.76286,-0.15069 -5.85111,-0.36972 -7.95294,-0.8342 l -1.73883,-0.38427 -0.47639,0.35568 c -0.57742,0.43111 -2.91399,4.53834 -3.41717,6.00674 -0.33757,0.98511 -0.36212,1.48311 -0.36212,7.34644 0,6.24005 0.003,6.30014 0.44514,7.61574 1.37057,4.08289 3.67348,7.1755 6.92257,9.29654 2.13127,1.3913 3.51325,1.68418 5.88137,1.24639 z m -74.81486,-1.5791 c -2.51755,-0.98367 -3.32613,-2.8832 -2.43468,-5.7196 0.1953,-0.6214 1.35996,-2.96983 2.58814,-5.21871 3.01562,-5.52187 3.82812,-7.23883 4.71121,-9.95556 0.41318,-1.27111 1.1991,-3.19111 1.74651,-4.26667 0.54742,-1.07555 1.02588,-2.0248 1.06327,-2.10942 0.0374,-0.0846 -0.52177,0.28611 -1.24257,0.82382 -1.63817,1.22209 -4.65304,2.97119 -9.47864,5.49909 -2.05866,1.07843 -4.19898,2.23493 -4.75628,2.56996 -1.82649,1.09812 -3.70625,1.87325 -4.77848,1.97047 -0.93493,0.0848 -1.10443,0.0402 -2.058,-0.54054 -1.20764,-0.73557 -2.09394,-1.60397 -2.36157,-2.31384 -0.29605,-0.78523 -0.22258,-2.07283 0.16381,-2.87101 0.7395,-1.5276 3.28971,-3.4227 7.08004,-5.26126 1.43654,-0.69682 3.30905,-1.6639 4.16112,-2.14906 1.65687,-0.94342 3.69555,-2.37563 3.69471,-2.59561 -5.4e-4,-0.14698 -2.62304,-0.95348 -4.44394,-1.36666 -0.63556,-0.14424 -2.61528,-0.42776 -4.39938,-0.63007 -4.01613,-0.45541 -4.20697,-0.49205 -5.23404,-1.00469 -1.65474,-0.82594 -2.24414,-2.38518 -1.90939,-5.05116 0.28319,-2.25545 1.20121,-3.1904 3.13371,-3.19158 1.54104,-0.001 4.66098,0.43413 7.69799,1.07346 1.41779,0.29845 4.82361,0.97664 7.56853,1.50707 9.01943,1.74295 13.01955,3.21316 14.46724,5.31732 0.84885,1.23376 1.13674,2.54955 1.13082,5.16816 -0.006,2.74676 -0.35335,4.6386 -1.56578,8.53333 -1.08403,3.4823 -1.98188,5.64611 -4.09402,9.86667 -0.95418,1.90666 -2.20056,4.45141 -2.76975,5.655 -0.56917,1.20359 -1.39487,2.72984 -1.83485,3.39167 -0.88206,1.3268 -2.3268,2.77276 -3.04219,3.04476 -0.70311,0.26732 -1.85503,0.19527 -2.80356,-0.17533 z m 139.16578,-49.31579 c -3.15839,-1.03045 -17.29351,-7.82323 -20.63684,-9.91727 -1.36343,-0.85394 -2.90398,-2.45939 -3.56472,-3.71484 -0.46367,-0.88104 -0.50915,-1.12822 -0.50514,-2.74597 0.003,-1.37004 0.0984,-2.06319 0.41477,-3.02222 0.60419,-1.83251 1.17453,-2.71905 3.77424,-5.86667 3.06549,-3.71159 4.54443,-5.67526 6.85295,-9.09915 3.38714,-5.02362 5.6318,-7.56183 6.89724,-7.79922 0.53086,-0.0996 0.85208,-0.0242 1.66144,0.38968 3.53132,1.80599 2.77427,5.83028 -2.57044,13.66425 -0.73381,1.07555 -1.79781,2.63556 -2.36448,3.46666 -1.05557,1.54821 -2.35975,3.92522 -2.22663,4.05831 0.041,0.041 0.81787,-0.36798 1.72655,-0.90867 3.27242,-1.94715 6.7691,-3.59301 10.00773,-4.71061 3.69228,-1.27414 4.40465,-1.45095 5.86985,-1.4569 1.34585,-0.006 2.11561,0.47171 2.80539,1.73905 1.08612,1.99557 0.96597,3.99528 -0.33107,5.51057 -0.93525,1.09267 -3.15616,2.09205 -7.98862,3.59481 -4.4348,1.3791 -5.38723,1.80293 -6.41354,2.85398 -0.65795,0.67379 -0.66517,0.69572 -0.34591,1.04847 0.4517,0.49913 1.69131,1.04999 4.8039,2.13469 4.91505,1.71288 6.76167,2.88462 7.74405,4.91396 0.57148,1.1806 0.61344,3.93364 0.074,4.86679 -0.81769,1.41475 -3.15435,1.8259 -5.68482,1.0003 z" />
</svg>
